<?xml version="1.0" encoding="UTF-8" standalone="no"?>
<!DOCTYPE svg PUBLIC "-//W3C//DTD SVG 1.1//EN" "http://www.w3.org/Graphics/SVG/1.1/DTD/svg11.dtd">
<svg xmlns="http://www.w3.org/2000/svg" xmlns:xlink="http://www.w3.org/1999/xlink" version="1.1" width="351.21879pt" height="109.911518pt" viewBox="0 0 351.21879 109.911518">
<g enable-background="new">
<clipPath id="cp0">
<path transform="matrix(1,0,0,-1,-238.9531,352.6722)" d="M 0 0 L 841.89 0 L 841.89 595.276 L 0 595.276 Z "/>
</clipPath>
<g clip-path="url(#cp0)">
<path transform="matrix(1,0,0,-1,-238.9531,352.6722)" d="M 292.0786 347.6447 C 269.7326 347.6447 251.5526 329.4647 251.5526 307.1187 C 251.5526 284.7727 269.7326 266.5927 292.0786 266.5927 C 314.4246 266.5927 332.6046 284.7727 332.6046 307.1187 C 332.6046 329.4647 314.4246 347.6447 292.0786 347.6447 " fill="#bee6ef"/>
<path transform="matrix(1,0,0,-1,-238.9531,352.6722)" d="M 303.54 344.5925 C 298.086 342.4725 305.544 327.6375 300.212 326.1755 C 299.548 325.9935 299.403 327.2805 299.521 327.9595 C 299.639 328.6375 299.96 329.2795 299.986 329.9675 C 300.042 331.4295 298.706 332.6485 297.28 332.9765 C 295.853 333.3035 294.065 333.5635 292.945 332.6215 C 291.044 331.0235 291.059 326.7785 290.772 324.9085 C 290.662 324.1865 290.514 323.4255 290.028 322.8805 C 289.646 322.4525 289.098 322.2085 288.544 322.0595 C 285.228 321.1675 280.608 322.6615 277.699 320.8375 C 275.246 319.2995 275.674 316.4735 275.643 313.5795 C 275.618 311.2715 275.596 308.9325 276.174 306.6975 C 276.752 304.4645 278.011 302.3095 280.008 301.1515 C 280.85 300.6635 281.861 300.3075 282.331 299.4555 C 282.936 298.3605 282.293 296.9105 281.255 296.2145 C 280.216 295.5165 278.909 295.3865 277.661 295.3065 C 274.785 295.1225 271.899 295.0965 269.021 295.2315 C 267.776 295.2905 266.473 295.3685 265.338 294.8535 C 264.396 294.4255 263.67 293.6315 263.074 292.7855 C 261.398 290.4065 259.285 285.7585 259.539 282.9925 C 260.086 282.2555 260.665 281.5425 261.261 280.8435 C 261.343 280.8285 261.409 280.7975 261.498 280.7885 C 263.63 280.5765 265.187 282.7565 267.321 282.5585 C 272.298 282.0995 277.021 277.8655 281.861 279.1095 C 284.67 279.8315 285.839 283.3455 288.171 285.0715 C 288.674 285.4435 289.234 285.8185 289.86 285.8065 C 291.483 285.7775 291.895 283.5205 293.082 282.4125 C 294.315 281.2595 296.254 281.4945 297.914 281.8035 C 298.962 281.9995 300.073 282.2245 300.846 282.9595 C 302.263 284.3035 301.902 286.6065 301.434 288.5025 C 300.698 291.4765 299.214 293.9845 296.324 295.0025 C 293.629 295.9515 290.362 295.4335 288.533 297.6285 C 287.873 298.4205 287.678 299.4895 287.536 300.5095 C 287.248 302.5775 287.126 304.8395 288.259 306.5925 C 289.38 308.3265 291.504 309.1605 293.556 309.3975 C 295.607 309.6345 297.684 309.3845 299.746 309.4875 C 301.578 309.5775 303.95 309.6455 304.63 307.9435 C 304.91 307.2425 304.771 306.4395 304.984 305.7155 C 305.45 304.1345 307.826 303.5635 308.959 304.7605 C 309.676 305.5175 309.81 306.6345 310.156 307.6175 C 310.501 308.6015 311.337 309.6195 312.366 309.4565 C 313.319 309.3045 313.831 308.2025 313.818 307.2385 C 313.795 305.5265 312.703 304.0475 311.939 302.5155 C 311.175 300.9835 310.795 298.9355 311.988 297.7085 C 312.578 297.1025 313.441 296.8365 314.284 296.7645 C 318.594 296.3985 322.214 300.8895 322.057 305.2125 C 322.023 306.1415 321.764 307.2005 320.932 307.6155 C 320.101 308.0305 318.822 307.7555 318.433 308.5975 C 317.934 309.6765 319.735 310.4805 319.911 311.6565 C 320.009 312.3085 319.572 312.9385 319.603 313.5975 C 319.66 314.7875 321.128 315.3635 322.318 315.3115 C 323.508 315.2595 324.763 314.8925 325.849 315.3815 C 327.071 315.9305 327.627 317.4335 327.489 318.7665 C 327.352 320.0995 326.671 321.3065 326.005 322.4695 C 325.394 323.5375 324.701 324.6785 323.557 325.1295 C 322.019 325.7355 320.261 324.8715 318.644 325.2095 C 317.223 325.5065 316.165 326.6635 315.211 327.7575 C 313.498 329.7225 311.785 331.6875 310.071 333.6535 C 309.572 334.2255 309.038 334.9565 309.286 335.6745 C 309.749 337.0165 311.749 336.8685 312.262 338.3745 C 312.729 339.7425 311.863 341.9375 310.957 342.9605 C 309.579 343.6895 308.152 344.3385 306.685 344.9075 C 305.591 345.0375 304.483 344.9585 303.54 344.5925 " fill="#f4db6b"/>
<path transform="matrix(1,0,0,-1,-238.9531,352.6722)" d="M 270.2559 326.3449 C 271.7319 325.8029 275.0779 325.4649 275.7539 327.4669 C 276.2349 328.8899 275.7459 332.0069 274.7109 333.1439 C 273.7579 334.1919 272.2319 335.0779 272.3379 336.4909 C 272.3909 337.2119 272.8919 337.8109 273.3689 338.3559 C 274.8319 340.0259 276.6759 341.8519 278.8789 341.5769 C 280.2329 341.4089 281.3689 340.4409 282.1539 339.3239 C 282.9389 338.2079 287.4429 335.5719 288.7239 335.3179 C 290.0119 335.0619 292.1799 335.5199 292.5289 336.6689 C 292.8309 337.6589 292.5009 339.0379 291.2789 340.4819 C 290.2469 341.7019 285.3509 344.1049 284.5609 344.6149 C 284.0049 344.9749 283.5249 345.9389 283.5049 346.7229 C 275.7049 345.0359 268.7349 341.1029 263.3099 335.6299 C 265.8919 331.3839 268.2879 327.0679 270.2559 326.3449 " fill="#f4db6b"/>
<path transform="matrix(1,0,0,-1,-238.9531,352.6722)" d="M 255.9966 322.0222 C 258.7116 321.2072 261.9876 322.9742 262.6006 323.2302 C 263.7756 323.7222 265.5606 325.1582 265.5746 326.7912 C 265.5966 329.3362 263.0266 331.7032 262.4386 332.2022 C 261.9936 332.5802 261.4406 332.8932 260.8736 332.9452 C 258.3666 329.9222 256.2886 326.5312 254.7366 322.8652 C 255.1006 322.4592 255.6296 322.1322 255.9966 322.0222 " fill="#3bb3dd"/>
<path transform="matrix(1,0,0,-1,-238.9531,352.6722)" d="M 260.7256 296.7898 C 261.2146 297.5668 262.1726 299.4098 262.1686 300.8618 C 262.1646 302.3128 262.2916 303.0748 263.2416 304.1718 C 263.9146 304.9508 265.0836 306.3728 265.1016 307.4018 C 265.1196 308.4668 264.0236 309.1408 263.1826 309.7938 C 261.7676 310.8928 260.7956 312.4588 259.9676 314.0478 C 259.1406 315.6378 258.4186 317.2948 257.3656 318.7448 C 256.5696 319.8388 255.4756 320.9478 254.1896 321.4788 C 252.4906 317.0128 251.5526 312.1738 251.5526 307.1188 C 251.5526 302.8588 252.2166 298.7528 253.4406 294.8928 C 256.0296 294.8688 259.4506 294.7628 260.7256 296.7898 " fill="#f4db6b"/>
<path transform="matrix(1,0,0,-1,-238.9531,352.6722)" d="M 258.9351 306.5036 C 259.2451 306.8876 259.3871 307.3796 259.4561 307.8686 C 259.6971 309.5666 259.1281 311.2816 258.3621 312.8176 C 257.2851 314.9776 255.2271 317.1736 253.2921 318.8566 C 252.1641 315.1386 251.5521 311.1996 251.5521 307.1186 C 251.5521 305.7676 251.6221 304.4326 251.7511 303.1156 C 254.0661 303.4896 255.9901 304.5166 258.0671 305.8046 C 258.3841 306.0016 258.7011 306.2126 258.9351 306.5036 " fill="#eb8c2a"/>
<path transform="matrix(1,0,0,-1,-238.9531,352.6722)" d="M 302.0098 272.6106 C 298.7288 277.4946 292.9218 279.5706 289.0908 279.0286 C 286.6198 278.6786 285.7128 276.8246 283.3478 276.0316 C 281.9768 275.5716 278.4558 275.2046 278.8598 272.6626 C 279.2588 270.1476 282.7458 270.0146 284.5268 268.1936 C 284.9258 267.7856 285.3558 267.3956 285.8268 267.0766 C 287.8658 266.7586 289.9528 266.5926 292.0788 266.5926 C 295.9068 266.5926 299.6078 267.1376 303.1208 268.1336 C 303.3968 268.7246 303.4548 269.4316 303.3088 270.0766 C 303.0978 271.0086 302.5428 271.8176 302.0098 272.6106 " fill="#3bb3dd"/>
<path transform="matrix(1,0,0,-1,-238.9531,352.6722)" d="M 329.0942 273.7717 L 326.8672 275.7817 C 326.4182 275.2837 325.9522 274.8037 325.4842 274.3277 L 321.0422 279.0897 L 318.8482 277.0437 L 323.3182 272.2507 C 314.7712 264.6137 303.6372 260.3117 292.0782 260.3117 C 266.2442 260.3117 245.2272 281.3287 245.2272 307.1627 C 245.2272 321.3827 251.5592 334.5597 262.4002 343.4137 L 266.4452 338.4017 L 268.7792 340.2867 L 264.7832 345.2367 C 265.5142 345.7607 266.2582 346.2727 267.0252 346.7587 L 265.4192 349.2927 C 250.8972 340.0847 242.2272 324.3347 242.2272 307.1627 C 242.2272 280.0417 264.0012 257.9257 290.9832 257.3387 L 290.9832 248.2587 L 279.1402 248.2587 L 279.1402 245.2587 L 305.8262 245.2587 L 305.8262 248.2587 L 293.9832 248.2587 L 293.9832 257.3627 C 307.3712 257.8767 320.0802 263.7837 329.0942 273.7717 " fill="#bcbec0"/>
<path transform="matrix(1,0,0,-1,-238.9531,352.6722)" d="M 322.0649 295.2112 C 319.8769 295.5772 317.5569 295.7672 315.5039 294.9262 C 314.7559 294.6192 314.0229 294.1362 313.7039 293.3932 C 313.4869 292.8882 313.4849 292.3192 313.4859 291.7702 C 313.4889 290.6772 314.3919 289.1172 313.3329 287.7862 C 312.3139 286.5042 309.6259 287.0142 308.0079 286.7032 C 306.3909 286.3942 304.6909 285.5642 304.1319 284.0152 C 303.5969 282.5342 304.3289 280.8102 305.5609 279.8292 C 306.7929 278.8492 308.4159 278.4952 309.9879 278.4202 C 310.7229 278.3852 311.4819 278.3992 312.1619 278.1172 C 312.5959 277.9382 312.9729 277.6462 313.3559 277.3732 C 314.5099 276.5492 315.7579 275.8702 317.0099 275.2042 C 323.1629 280.0222 327.8899 286.5722 330.4539 294.1192 C 328.8279 294.5362 326.9549 294.4862 326.5429 294.5182 C 325.0349 294.6352 323.5539 294.9622 322.0649 295.2112 " fill="#3bb3dd"/>
<path transform="matrix(1,0,0,-1,-238.9531,352.6722)" d="M 361.0269 294.3049 C 359.5109 295.2139 358.3129 296.4399 357.4319 297.9829 C 356.5499 299.5259 356.1099 301.2059 356.1099 303.0249 L 356.1099 312.6939 C 356.1099 314.5119 356.5499 316.1929 357.4319 317.7359 C 358.3129 319.2779 359.5109 320.5039 361.0269 321.4129 C 362.5419 322.3229 364.1939 322.7769 365.9859 322.7769 C 367.4449 322.7769 368.8089 322.5219 370.0769 322.0119 C 371.3429 321.5019 372.4589 320.7659 373.4239 319.8019 C 373.5619 319.6909 373.6309 319.5259 373.6309 319.3059 C 373.6309 319.1129 373.5619 318.9339 373.4239 318.7689 C 372.8449 318.1079 372.4729 317.6939 372.3079 317.5289 C 372.1149 317.3909 371.9219 317.3229 371.7299 317.3229 C 371.5089 317.3229 371.3019 317.4179 371.1099 317.6119 C 369.7319 318.9339 368.0379 319.5949 366.0269 319.5949 C 364.8419 319.5949 363.7549 319.2779 362.7619 318.6449 C 361.7709 318.0099 360.9849 317.1629 360.4069 316.1029 C 359.8289 315.0419 359.5389 313.9059 359.5389 312.6939 L 359.5389 303.0249 C 359.5389 301.8119 359.8289 300.6749 360.4069 299.6159 C 360.9849 298.5539 361.7709 297.7069 362.7619 297.0739 C 363.7549 296.4399 364.8419 296.1229 366.0269 296.1229 C 368.0379 296.1229 369.7319 296.7839 371.1099 298.1069 C 371.3019 298.2989 371.5089 298.3959 371.7299 298.3959 C 371.9219 298.3959 372.1149 298.3269 372.3079 298.1899 C 372.4729 298.0249 372.8449 297.6109 373.4239 296.9499 C 373.5619 296.8119 373.6309 296.6329 373.6309 296.4119 C 373.6309 296.2199 373.5619 296.0539 373.4239 295.9169 C 372.4589 294.9519 371.3429 294.2149 370.0769 293.7059 C 368.8089 293.1969 367.4449 292.9419 365.9859 292.9419 C 364.1939 292.9419 362.5419 293.3959 361.0269 294.3049 " fill="#231f20"/>
<path transform="matrix(1,0,0,-1,-238.9531,352.6722)" d="M 390.1187 296.7639 C 390.9997 297.2739 391.6957 297.9689 392.2047 298.8509 C 392.7147 299.7319 392.9697 300.6969 392.9697 301.7429 L 392.9697 308.6029 C 392.9697 309.6499 392.7147 310.6139 392.2047 311.4949 C 391.6957 312.3769 390.9997 313.0729 390.1187 313.5819 C 389.2367 314.0919 388.2727 314.3469 387.2257 314.3469 C 386.1787 314.3469 385.2147 314.0919 384.3327 313.5819 C 383.4517 313.0729 382.7557 312.3769 382.2467 311.4949 C 381.7367 310.6139 381.4817 309.6499 381.4817 308.6029 L 381.4817 301.7429 C 381.4817 300.6969 381.7367 299.7319 382.2467 298.8509 C 382.7557 297.9689 383.4517 297.2739 384.3327 296.7639 C 385.2147 296.2539 386.1787 295.9989 387.2257 295.9989 C 388.2727 295.9989 389.2367 296.2539 390.1187 296.7639 M 382.7217 294.1399 C 381.3437 294.9389 380.2557 296.0339 379.4567 297.4249 C 378.6577 298.8159 378.2587 300.3249 378.2587 301.9509 L 378.2587 308.3969 C 378.2587 310.0219 378.6577 311.5299 379.4567 312.9209 C 380.2557 314.3119 381.3437 315.4079 382.7217 316.2059 C 384.0987 317.0049 385.5997 317.4049 387.2257 317.4049 C 388.8507 317.4049 390.3517 317.0049 391.7297 316.2059 C 393.1077 315.4079 394.1957 314.3119 394.9947 312.9209 C 395.7937 311.5299 396.1927 310.0219 396.1927 308.3969 L 396.1927 301.9509 C 396.1927 300.3249 395.7937 298.8159 394.9947 297.4249 C 394.1957 296.0339 393.1077 294.9389 391.7297 294.1399 C 390.3517 293.3409 388.8507 292.9419 387.2257 292.9419 C 385.5997 292.9419 384.0987 293.3409 382.7217 294.1399 " fill="#231f20"/>
<path transform="matrix(1,0,0,-1,-238.9531,352.6722)" d="M 404.293 293.5617 C 403.08 293.8917 402.034 294.3737 401.152 295.0077 C 401.042 295.0627 400.966 295.1527 400.925 295.2767 C 400.884 295.4007 400.89 295.5307 400.946 295.6687 L 401.814 297.4047 C 401.951 297.6237 402.13 297.7347 402.351 297.7347 C 402.405 297.7347 402.516 297.7077 402.681 297.6527 C 404.5 296.5497 406.331 295.9997 408.177 295.9997 C 409.637 295.9997 410.787 296.3227 411.627 296.9707 C 412.468 297.6177 412.888 298.5337 412.888 299.7187 C 412.888 300.4347 412.702 301.0197 412.33 301.4747 C 411.958 301.9287 411.469 302.3007 410.863 302.5897 C 410.257 302.8797 409.307 303.2727 408.012 303.7677 C 406.331 304.4017 405.009 304.9937 404.045 305.5447 C 403.08 306.0957 402.323 306.7977 401.772 307.6527 C 401.221 308.5057 400.946 309.5947 400.946 310.9167 C 400.946 313.0387 401.648 314.6497 403.053 315.7517 C 404.458 316.8537 406.262 317.4047 408.466 317.4047 C 409.624 317.4047 410.773 317.2397 411.917 316.9087 C 413.06 316.5787 414.086 316.1097 414.996 315.5037 C 415.105 315.4487 415.174 315.3517 415.202 315.2147 C 415.229 315.0767 415.216 314.9527 415.161 314.8427 L 414.335 313.1487 C 414.279 312.9837 414.175 312.8737 414.024 312.8177 C 413.873 312.7617 413.714 312.7907 413.549 312.9007 C 411.786 313.9477 410.092 314.4707 408.466 314.4707 C 407.116 314.4707 406.063 314.1817 405.305 313.6027 C 404.547 313.0247 404.169 312.1837 404.169 311.0827 C 404.169 310.2277 404.376 309.5397 404.789 309.0157 C 405.202 308.4927 405.698 308.0997 406.276 307.8377 C 406.855 307.5767 407.777 307.2107 409.045 306.7437 C 410.67 306.1657 411.951 305.6277 412.888 305.1317 C 413.824 304.6357 414.596 303.9747 415.202 303.1487 C 415.808 302.3217 416.111 301.2477 416.111 299.9247 C 416.111 297.8037 415.374 296.1297 413.9 294.9047 C 412.426 293.6777 410.463 293.0657 408.012 293.0657 C 406.745 293.0657 405.505 293.2307 404.293 293.5617 " fill="#231f20"/>
<path transform="matrix(1,0,0,-1,-238.9531,352.6722)" d="M 421.978 293.6438 C 421.868 293.7538 421.813 293.8918 421.813 294.0568 L 421.813 316.2898 C 421.813 316.4548 421.868 316.5918 421.978 316.7028 C 422.088 316.8118 422.226 316.8678 422.391 316.8678 L 424.457 316.8678 C 424.622 316.8678 424.76 316.8118 424.87 316.7028 C 424.98 316.5918 425.036 316.4548 425.036 316.2898 L 425.036 314.0578 C 425.697 315.1598 426.571 315.9928 427.66 316.5578 C 428.748 317.1228 429.953 317.4048 431.275 317.4048 C 433.011 317.4048 434.52 316.9978 435.801 316.1858 C 437.081 315.3728 437.997 314.2638 438.549 312.8598 C 439.127 314.3198 440.021 315.4348 441.234 316.2058 C 442.446 316.9778 443.823 317.3638 445.367 317.3638 C 447.708 317.3638 449.603 316.6468 451.049 315.2148 C 452.495 313.7818 453.218 311.8948 453.218 309.5528 L 453.218 294.0568 C 453.218 293.8918 453.162 293.7538 453.053 293.6438 C 452.942 293.5338 452.805 293.4788 452.64 293.4788 L 450.573 293.4788 C 450.408 293.4788 450.27 293.5338 450.16 293.6438 C 450.05 293.7538 449.995 293.8918 449.995 294.0568 L 449.995 308.9338 C 449.995 310.6968 449.533 312.0398 448.61 312.9618 C 447.687 313.8848 446.441 314.3468 444.871 314.3468 C 443.162 314.3468 441.778 313.7408 440.718 312.5288 C 439.657 311.3158 439.127 309.6498 439.127 307.5288 L 439.127 294.0568 C 439.127 293.8918 439.071 293.7538 438.962 293.6438 C 438.852 293.5338 438.714 293.4788 438.549 293.4788 L 436.482 293.4788 C 436.317 293.4788 436.179 293.5338 436.069 293.6438 C 435.959 293.7538 435.903 293.8918 435.903 294.0568 L 435.903 308.9748 C 435.903 310.7378 435.442 312.0808 434.52 313.0038 C 433.596 313.9268 432.35 314.3878 430.779 314.3878 C 429.071 314.3878 427.686 313.7818 426.627 312.5698 C 425.565 311.3578 425.036 309.6908 425.036 307.5698 L 425.036 294.0568 C 425.036 293.8918 424.98 293.7538 424.87 293.6438 C 424.76 293.5338 424.622 293.4788 424.457 293.4788 L 422.391 293.4788 C 422.226 293.4788 422.088 293.5338 421.978 293.6438 " fill="#231f20"/>
<path transform="matrix(1,0,0,-1,-238.9531,352.6722)" d="M 471.0693 296.7639 C 471.9503 297.2739 472.6453 297.9689 473.1563 298.8509 C 473.6653 299.7319 473.9213 300.6969 473.9213 301.7429 L 473.9213 308.6029 C 473.9213 309.6499 473.6653 310.6139 473.1563 311.4949 C 472.6453 312.3769 471.9503 313.0729 471.0693 313.5819 C 470.1863 314.0919 469.2223 314.3469 468.1763 314.3469 C 467.1293 314.3469 466.1653 314.0919 465.2833 313.5819 C 464.4013 313.0729 463.7063 312.3769 463.1973 311.4949 C 462.6863 310.6139 462.4323 309.6499 462.4323 308.6029 L 462.4323 301.7429 C 462.4323 300.6969 462.6863 299.7319 463.1973 298.8509 C 463.7063 297.9689 464.4013 297.2739 465.2833 296.7639 C 466.1653 296.2539 467.1293 295.9989 468.1763 295.9989 C 469.2223 295.9989 470.1863 296.2539 471.0693 296.7639 M 463.6723 294.1399 C 462.2943 294.9389 461.2063 296.0339 460.4073 297.4249 C 459.6083 298.8159 459.2093 300.3249 459.2093 301.9509 L 459.2093 308.3969 C 459.2093 310.0219 459.6083 311.5299 460.4073 312.9209 C 461.2063 314.3119 462.2943 315.4079 463.6723 316.2059 C 465.0483 317.0049 466.5503 317.4049 468.1763 317.4049 C 469.8013 317.4049 471.3023 317.0049 472.6803 316.2059 C 474.0573 315.4079 475.1453 314.3119 475.9453 312.9209 C 476.7443 311.5299 477.1433 310.0219 477.1433 308.3969 L 477.1433 301.9509 C 477.1433 300.3249 476.7443 298.8159 475.9453 297.4249 C 475.1453 296.0339 474.0573 294.9389 472.6803 294.1399 C 471.3023 293.3409 469.8013 292.9419 468.1763 292.9419 C 466.5503 292.9419 465.0483 293.3409 463.6723 294.1399 " fill="#231f20"/>
<path transform="matrix(1,0,0,-1,-238.9531,352.6722)" d="M 494.8916 305.7307 C 495.8696 306.6817 496.3586 307.9147 496.3586 309.4297 C 496.3586 310.9447 495.8696 312.1767 494.8916 313.1277 C 493.9136 314.0787 492.6126 314.5537 490.9876 314.5537 C 489.3616 314.5537 488.0596 314.0787 487.0816 313.1277 C 486.1036 312.1767 485.6156 310.9447 485.6156 309.4297 C 485.6156 307.9147 486.1036 306.6817 487.0816 305.7307 C 488.0596 304.7807 489.3616 304.3047 490.9876 304.3047 C 492.6126 304.3047 493.9136 304.7807 494.8916 305.7307 M 496.2356 288.7267 C 497.4476 289.3337 498.0526 290.2837 498.0526 291.5787 C 498.0526 292.2397 497.8806 292.7347 497.5366 293.0657 C 497.1916 293.3957 496.7236 293.6237 496.1316 293.7477 C 495.5386 293.8717 494.6646 293.9887 493.5076 294.0987 C 493.2596 294.1257 492.6736 294.1737 491.7506 294.2437 C 490.8286 294.3117 489.8156 294.4157 488.7136 294.5527 C 488.0526 294.6357 487.5016 294.7177 487.0616 294.8007 C 486.5096 294.3877 486.0766 293.8777 485.7596 293.2717 C 485.4426 292.6667 485.2846 292.0467 485.2846 291.4127 C 485.2846 290.1457 485.8696 289.2297 487.0406 288.6647 C 488.2106 288.0997 489.7056 287.8177 491.5246 287.8177 C 493.4526 287.8177 495.0226 288.1217 496.2356 288.7267 M 484.7676 286.4127 C 483.1276 287.3767 482.3086 288.8087 482.3086 290.7097 C 482.3086 291.6747 482.5296 292.5977 482.9696 293.4787 C 483.4106 294.3597 484.0026 295.0897 484.7466 295.6687 C 484.0586 296.1367 483.5556 296.6127 483.2396 297.0947 C 482.9216 297.5767 482.7636 298.1617 482.7636 298.8507 C 482.7636 299.7047 483.0046 300.5167 483.4866 301.2887 C 483.9686 302.0597 484.6226 302.7077 485.4496 303.2307 C 484.5126 303.9477 483.7826 304.8347 483.2596 305.8967 C 482.7356 306.9567 482.4746 308.1337 482.4746 309.4297 C 482.4746 310.9997 482.8526 312.3907 483.6106 313.6027 C 484.3686 314.8147 485.3946 315.7517 486.6896 316.4137 C 487.9836 317.0747 489.4166 317.4047 490.9876 317.4047 C 492.0616 317.4047 493.1356 317.2247 494.2096 316.8677 L 502.3916 316.8677 C 502.5576 316.8677 502.6956 316.8117 502.8056 316.7027 C 502.9146 316.5917 502.9706 316.4547 502.9706 316.2897 L 502.9706 314.3877 C 502.9706 314.2227 502.9146 314.0847 502.8056 313.9747 C 502.6956 313.8647 502.5576 313.8097 502.3916 313.8097 L 498.2186 313.8097 C 499.0726 312.5697 499.4986 311.1097 499.4986 309.4297 C 499.4986 307.8597 499.1206 306.4677 498.3636 305.2557 C 497.6056 304.0437 496.5786 303.1067 495.2846 302.4457 C 493.9896 301.7847 492.5576 301.4547 490.9876 301.4547 C 489.9396 301.4547 488.8516 301.6327 487.7226 301.9917 C 487.1166 301.7157 486.6486 301.3577 486.3176 300.9177 C 485.9866 300.4757 485.8216 300.0077 485.8216 299.5117 C 485.8216 298.8777 486.0966 298.4097 486.6486 298.1067 C 487.0876 297.8587 487.7366 297.6797 488.5896 297.5697 C 489.4436 297.4597 490.7806 297.3217 492.5986 297.1567 L 494.2096 297.0327 C 495.5326 296.9217 496.6686 296.7437 497.6196 296.4957 C 498.5696 296.2477 499.3816 295.7647 500.0576 295.0487 C 500.7326 294.3327 501.0696 293.2867 501.0696 291.9087 C 501.0696 289.6497 500.1466 287.9277 498.3006 286.7437 C 496.4546 285.5587 494.0726 284.9657 491.1526 284.9657 C 488.5346 284.9657 486.4066 285.4487 484.7676 286.4127 " fill="#231f20"/>
<path transform="matrix(1,0,0,-1,-238.9531,352.6722)" d="M 509.2725 293.9123 C 508.9835 294.2023 508.8375 294.5533 508.8375 294.9663 L 508.8375 321.7853 L 504.9955 321.7853 C 504.8305 321.7853 504.6915 321.8403 504.5825 321.9503 C 504.4715 322.0593 504.4175 322.1983 504.4175 322.3633 L 504.4175 324.2653 C 504.4175 324.4303 504.4715 324.5673 504.5825 324.6783 C 504.6915 324.7873 504.8305 324.8433 504.9955 324.8433 L 510.5745 324.8433 C 510.9875 324.8433 511.3375 324.6983 511.6275 324.4093 C 511.9175 324.1193 512.0615 323.7683 512.0615 323.3553 L 512.0615 296.5363 L 516.4415 296.5363 C 516.6075 296.5363 516.7445 296.4803 516.8545 296.3713 C 516.9645 296.2613 517.0205 296.1233 517.0205 295.9583 L 517.0205 294.0573 C 517.0205 293.8913 516.9645 293.7543 516.8545 293.6433 C 516.7445 293.5333 516.6075 293.4783 516.4415 293.4783 L 510.3265 293.4783 C 509.9135 293.4783 509.5615 293.6233 509.2725 293.9123 " fill="#231f20"/>
<path transform="matrix(1,0,0,-1,-238.9531,352.6722)" d="M 532.8057 296.7639 C 533.6867 297.2739 534.3817 297.9689 534.8927 298.8509 C 535.4017 299.7319 535.6577 300.6969 535.6577 301.7429 L 535.6577 308.6029 C 535.6577 309.6499 535.4017 310.6139 534.8927 311.4949 C 534.3817 312.3769 533.6867 313.0729 532.8057 313.5819 C 531.9237 314.0919 530.9597 314.3469 529.9127 314.3469 C 528.8657 314.3469 527.9017 314.0919 527.0207 313.5819 C 526.1387 313.0729 525.4427 312.3769 524.9337 311.4949 C 524.4237 310.6139 524.1687 309.6499 524.1687 308.6029 L 524.1687 301.7429 C 524.1687 300.6969 524.4237 299.7319 524.9337 298.8509 C 525.4427 297.9689 526.1387 297.2739 527.0207 296.7639 C 527.9017 296.2539 528.8657 295.9989 529.9127 295.9989 C 530.9597 295.9989 531.9237 296.2539 532.8057 296.7639 M 525.4087 294.1399 C 524.0317 294.9389 522.9427 296.0339 522.1447 297.4249 C 521.3447 298.8159 520.9457 300.3249 520.9457 301.9509 L 520.9457 308.3969 C 520.9457 310.0219 521.3447 311.5299 522.1447 312.9209 C 522.9427 314.3119 524.0317 315.4079 525.4087 316.2059 C 526.7857 317.0049 528.2867 317.4049 529.9127 317.4049 C 531.5377 317.4049 533.0387 317.0049 534.4167 316.2059 C 535.7937 315.4079 536.8817 314.3119 537.6817 312.9209 C 538.4807 311.5299 538.8797 310.0219 538.8797 308.3969 L 538.8797 301.9509 C 538.8797 300.3249 538.4807 298.8159 537.6817 297.4249 C 536.8817 296.0339 535.7937 294.9389 534.4167 294.1399 C 533.0387 293.3409 531.5377 292.9419 529.9127 292.9419 C 528.2867 292.9419 526.7857 293.3409 525.4087 294.1399 " fill="#231f20"/>
<path transform="matrix(1,0,0,-1,-238.9531,352.6722)" d="M 557.1855 296.7639 C 558.0665 297.2739 558.7625 297.9689 559.2725 298.8509 C 559.7825 299.7319 560.0375 300.6969 560.0375 301.7429 L 560.0375 308.6029 C 560.0375 309.6499 559.7825 310.6139 559.2725 311.4949 C 558.7625 312.3769 558.0665 313.0729 557.1855 313.5819 C 556.3035 314.0919 555.3395 314.3469 554.2925 314.3469 C 553.2465 314.3469 552.2745 314.0919 551.3795 313.5819 C 550.4845 313.0729 549.7815 312.3769 549.2725 311.4949 C 548.7615 310.6139 548.5075 309.6499 548.5075 308.6029 L 548.5075 301.7429 C 548.5075 300.6969 548.7615 299.7319 549.2725 298.8509 C 549.7815 297.9689 550.4845 297.2739 551.3795 296.7639 C 552.2745 296.2539 553.2465 295.9989 554.2925 295.9989 C 555.3395 295.9989 556.3035 296.2539 557.1855 296.7639 M 551.1725 293.6639 C 550.0835 294.1469 549.1405 294.8149 548.3425 295.6689 L 548.3425 294.0569 C 548.3425 293.8919 548.2875 293.7539 548.1765 293.6439 C 548.0665 293.5339 547.9285 293.4789 547.7635 293.4789 L 545.8635 293.4789 C 545.6975 293.4789 545.5595 293.5339 545.4505 293.6439 C 545.3395 293.7539 545.2845 293.8919 545.2845 294.0569 L 545.2845 324.2649 C 545.2845 324.4299 545.3395 324.5679 545.4505 324.6779 C 545.5595 324.7869 545.6975 324.8429 545.8635 324.8429 L 547.9285 324.8429 C 548.0945 324.8429 548.2325 324.7869 548.3425 324.6779 C 548.4525 324.5679 548.5075 324.4299 548.5075 324.2649 L 548.5075 314.5119 C 549.2785 315.4209 550.1955 316.1299 551.2555 316.6399 C 552.3155 317.1499 553.4385 317.4049 554.6225 317.4049 C 556.1935 317.4049 557.6395 317.0189 558.9625 316.2469 C 560.2855 315.4759 561.3315 314.4299 562.1025 313.1079 C 562.8735 311.7849 563.2595 310.3379 563.2595 308.7679 L 563.2595 301.5779 C 563.2595 300.0079 562.8735 298.5619 562.1025 297.2399 C 561.3315 295.9169 560.2855 294.8689 558.9625 294.0989 C 557.6395 293.3269 556.1935 292.9419 554.6225 292.9419 C 553.4115 292.9419 552.2605 293.1829 551.1725 293.6639 " fill="#231f20"/>
<path transform="matrix(1,0,0,-1,-238.9531,352.6722)" d="M 583.5498 307.0744 L 583.5498 308.6024 C 583.5498 309.6494 583.2938 310.6134 582.7848 311.4954 C 582.2748 312.3774 581.5788 313.0724 580.6978 313.5824 C 579.8168 314.0924 578.8528 314.3464 577.8058 314.3464 C 576.7578 314.3464 575.7938 314.0924 574.9128 313.5824 C 574.0308 313.0724 573.3348 312.3774 572.8258 311.4954 C 572.3168 310.6134 572.0618 309.6494 572.0618 308.6024 L 572.0618 307.0744 Z M 573.3008 294.6774 C 571.9238 295.4754 570.8348 296.5704 570.0368 297.9624 C 569.2368 299.3524 568.8378 300.8614 568.8378 302.4874 L 568.8378 308.3964 C 568.8378 310.0214 569.2368 311.5294 570.0368 312.9214 C 570.8348 314.3114 571.9238 315.4074 573.3008 316.2064 C 574.6788 317.0054 576.1798 317.4044 577.8058 317.4044 C 579.4308 317.4044 580.9318 317.0054 582.3098 316.2064 C 583.6868 315.4074 584.7748 314.3114 585.5738 312.9214 C 586.3728 311.5294 586.7728 310.0214 586.7728 308.3964 L 586.7728 305.5864 C 586.7728 305.1734 586.6278 304.8214 586.3388 304.5324 C 586.0498 304.2434 585.6978 304.0984 585.2848 304.0984 L 572.0618 304.0984 L 572.0618 302.2804 C 572.0618 301.2334 572.3168 300.2694 572.8258 299.3874 C 573.3348 298.5064 574.0308 297.8104 574.9128 297.3014 C 575.7938 296.7914 576.7578 296.5364 577.8058 296.5364 L 583.7968 296.5364 C 583.9628 296.5364 584.0998 296.4804 584.2108 296.3714 C 584.3208 296.2614 584.3758 296.1234 584.3758 295.9584 L 584.3758 294.0564 C 584.3758 293.8914 584.3208 293.7544 584.2108 293.6434 C 584.0998 293.5334 583.9628 293.4784 583.7968 293.4784 L 577.8058 293.4784 C 576.1798 293.4784 574.6788 293.8784 573.3008 294.6774 " fill="#231f20"/>
<path transform="matrix(1,0,0,-1,-238.9531,352.6722)" d="M 301.8765 317.0632 C 301.9905 316.7642 302.0865 316.4502 302.0745 316.1302 C 302.0305 314.9952 300.7485 314.3712 299.6445 314.1002 C 297.6415 313.6082 294.2185 312.8482 292.8095 313.8552 C 291.7665 314.6002 292.1255 317.3902 292.3295 318.7582 C 292.5345 320.1262 293.1105 321.4762 294.1385 322.4022 C 296.1885 324.2492 301.1685 318.9392 301.8765 317.0632 " fill="#eb8c2a"/>
<path transform="matrix(1,0,0,-1,-238.9531,352.6722)" d="M 286.4673 308.8235 C 285.6933 307.9165 284.9923 306.5605 283.8023 306.4805 C 280.9223 306.2885 280.4643 309.9775 280.4453 311.8155 C 280.4333 312.8785 280.5443 314.1185 281.4333 314.7025 C 281.6633 314.8535 281.9393 314.9475 282.2133 314.9235 C 283.0343 314.8535 283.4783 313.9215 284.0923 313.4935 C 284.7043 313.0695 285.3973 312.9935 286.0113 312.6475 C 287.7963 311.6415 287.7743 310.3535 286.4673 308.8235 " fill="#eb8c2a"/>
<path transform="matrix(1,0,0,-1,-238.9531,352.6722)" d="M 324.6152 321.1613 C 324.9012 320.6123 324.6052 319.7313 324.5912 319.3343 C 324.5722 318.8343 324.1672 318.4153 323.7042 318.2243 C 323.2412 318.0343 322.7262 318.0273 322.2262 318.0223 C 321.4632 318.0153 320.3172 317.5793 319.4462 318.3643 C 318.8312 318.9163 319.5182 320.0293 320.0392 320.6703 C 320.5592 321.3123 320.7992 321.8063 321.4962 322.2493 C 321.7342 322.4003 322.5112 322.5143 322.7502 322.3653 C 322.7502 322.3653 324.2542 321.8553 324.6152 321.1613 " fill="#eb8c2a"/>
<path transform="matrix(1,0,0,-1,-238.9531,352.6722)" d="M 313.771 321.0891 C 314.224 320.7201 314.746 320.4301 315.136 319.9951 C 315.499 319.5891 315.725 319.0791 315.908 318.5661 C 316.393 317.2051 316.616 315.7521 316.563 314.3081 C 316.542 313.7741 316.467 313.1991 316.102 312.8081 C 315.524 312.1891 314.53 312.3091 313.7 312.4761 C 312.425 312.7341 311.132 312.9981 309.974 313.5881 C 308.813 314.1791 307.838 315.0721 306.879 315.9531 C 306.231 316.5481 305.583 317.1441 304.936 317.7391 C 304.363 318.2661 303.78 318.8061 303.415 319.4931 C 303.083 320.1171 302.953 320.8291 302.886 321.5331 C 302.748 322.9921 302.908 324.5771 303.841 325.7071 C 304.636 326.6701 305.89 327.1601 307.131 327.2871 C 309.133 327.4931 310.579 327.4741 311.342 325.6511 C 312.044 323.9751 312.262 322.3191 313.771 321.0891 " fill="#eb8c2a"/>
<path transform="matrix(1,0,0,-1,-238.9531,352.6722)" d="M 312.4858 319.2546 C 313.2838 318.4836 314.1468 317.3476 313.5968 316.3846 C 312.9818 315.7316 311.8978 316.1786 311.1448 316.6666 C 309.6138 317.6586 308.1118 318.6966 306.6438 319.7786 C 305.0248 320.9706 305.3768 323.3466 307.6448 323.3206 C 309.2558 323.3026 311.4188 320.2846 312.4858 319.2546 " fill="#e24126"/>
<path transform="matrix(1,0,0,-1,-238.9531,352.6722)" d="M 280.2354 291.0774 C 281.1314 291.4794 281.9414 292.0814 282.8844 292.3504 C 283.8284 292.6204 285.0164 292.4384 285.5094 291.5894 C 285.8244 291.0464 285.7794 290.3684 285.6654 289.7504 C 285.0634 286.5124 282.6904 283.6604 279.6144 282.4794 C 278.9014 282.2064 278.1394 282.0154 277.3774 282.0684 C 274.3834 282.2754 272.5134 285.9874 269.5164 286.1224 C 269.1864 286.1374 268.8364 286.1094 268.5444 286.2654 C 268.0844 286.5104 267.9484 287.1144 268.0014 287.6344 C 268.4224 291.8244 277.3324 289.7764 280.2354 291.0774 " fill="#eb8c2a"/>
<path transform="matrix(1,0,0,-1,-238.9531,352.6722)" d="M 280.6548 288.5295 C 281.0248 288.5695 281.4558 288.5875 281.7028 288.3095 C 281.9418 288.0415 281.8828 287.6055 281.6768 287.3105 C 281.4718 287.0155 281.1558 286.8225 280.8638 286.6115 C 280.2678 286.1805 279.7398 285.6505 279.0968 285.2915 C 278.4548 284.9315 277.6358 284.7665 276.9888 285.1185 C 276.2898 285.4985 275.9938 286.4435 276.2808 287.1855 C 276.5678 287.9275 277.3568 288.4205 278.1518 288.4345 Z " fill="#e24126"/>
<path transform="matrix(1,0,0,-1,-238.9531,352.6722)" d="M 270.7812 333.2033 C 270.9462 332.0523 272.0902 331.3473 272.7852 330.4153 C 272.9972 330.1303 273.1772 329.7883 273.1302 329.4363 C 273.0512 328.8363 272.3242 328.5033 271.7322 328.6233 C 271.1392 328.7453 270.6662 329.1783 270.2372 329.6043 C 269.3222 330.5143 268.4562 331.4743 267.6452 332.4773 C 267.3892 332.7943 267.1302 333.1363 267.0772 333.5403 C 266.9902 334.2043 267.5142 334.8283 268.1352 335.0803 C 270.3022 335.9633 270.5222 335.0143 270.7812 333.2033 " fill="#eb8c2a"/>
<path transform="matrix(1,0,0,-1,-238.9531,352.6722)" d="M 260.2656 328.8122 C 259.3706 328.6762 258.5046 328.1582 258.0806 327.3572 C 257.6576 326.5582 257.8076 325.4362 258.5516 324.9192 C 259.0146 324.5972 259.6146 324.5462 260.1766 324.5892 C 260.9616 324.6492 261.7526 324.8832 262.3626 325.3812 C 262.9726 325.8792 263.3726 326.6692 263.2796 327.4512 C 263.1856 328.2322 262.5026 329.1482 261.7436 328.9882 C 261.3796 328.9122 260.6336 328.8682 260.2656 328.8122 " fill="#0056a1"/>
<path transform="matrix(1,0,0,-1,-238.9531,352.6722)" d="M 268.645 317.1218 C 269.965 316.0918 271.364 315.1318 272.447 313.8548 C 273.53 312.5778 274.277 310.8978 274.006 309.2458 C 273.736 307.5928 272.198 306.1088 270.536 306.3058 C 269.413 306.4388 268.503 307.2428 267.671 308.0078 C 265.138 310.3418 262.447 312.9698 262.017 316.3878 C 261.803 318.0948 261.693 321.5668 264.407 320.7008 C 265.903 320.2238 267.416 318.0798 268.645 317.1218 " fill="#3bb3dd"/>
<path transform="matrix(1,0,0,-1,-238.9531,352.6722)" d="M 276.2271 300.8 C 275.5351 301.943 273.1431 300.849 271.8631 301.274 C 270.9371 301.581 270.2361 302.333 269.3921 302.822 C 268.2191 303.502 266.7481 303.645 265.4671 303.203 C 264.9031 303.008 264.3351 302.658 264.1471 302.092 C 263.9601 301.532 264.1951 300.928 264.4251 300.384 C 264.9341 299.186 265.5241 297.896 266.6801 297.298 C 267.4391 296.904 268.3291 296.876 269.1841 296.856 L 271.9351 296.792 C 274.3571 296.736 277.2181 299.165 276.2271 300.8 " fill="#3bb3dd"/>
<path transform="matrix(1,0,0,-1,-238.9531,352.6722)" d="M 288.4707 331.6516 C 288.6677 330.8706 288.6517 330.0546 288.6117 329.2516 C 288.5457 327.9666 288.3637 326.5656 287.4047 325.6726 C 287.0987 325.3896 286.7327 325.1766 286.3697 324.9676 C 285.6467 324.5506 284.9117 324.1326 284.1047 323.9006 C 283.2987 323.6676 282.3997 323.6346 281.6357 323.9766 C 281.1687 324.1866 280.7767 324.5216 280.4007 324.8606 C 279.0427 326.0866 277.7517 327.4846 277.2107 329.2026 C 276.9497 330.0346 276.8737 330.9106 276.8347 331.7796 C 276.8047 332.4486 276.7977 333.1326 277.0017 333.7726 C 277.2057 334.4126 277.6567 335.0116 278.3047 335.2486 C 278.6957 335.3916 279.1237 335.3946 279.5417 335.3956 C 280.9017 335.3986 283.9937 334.5376 284.4647 334.4236 C 285.4537 334.1856 286.3177 334.3626 287.1787 333.6906 C 287.8267 333.1846 288.2747 332.4296 288.4707 331.6516 " fill="#3bb3dd"/>
<path transform="matrix(1,0,0,-1,-238.9531,352.6722)" d="M 284.4409 332.1052 C 285.5069 331.9292 286.2579 331.2952 286.1379 330.8552 C 286.0099 330.3822 285.3969 330.2912 285.0059 329.9932 C 284.2369 329.4072 284.5769 328.0862 283.9409 327.3582 C 283.6389 327.0132 283.1619 326.8672 282.7039 326.8532 C 281.5879 326.8192 280.4889 327.5472 280.0849 328.5872 C 279.6819 329.6282 279.8289 331.1792 280.8479 331.6342 C 281.6749 332.0042 283.5469 332.2532 284.4409 332.1052 " fill="#0056a1"/>
<path transform="matrix(1,0,0,-1,-238.9531,352.6722)" d="M 299.7139 316.385 C 299.1119 315.525 296.9099 315.47 295.8179 315.648 C 294.7929 315.814 293.8539 316.403 294.2399 318.342 C 294.4609 319.452 296.1699 320.081 297.0679 319.783 C 298.2399 319.395 300.6399 317.708 299.7139 316.385 " fill="#e24126"/>
<path transform="matrix(1,0,0,-1,-238.9531,352.6722)" d="M 291.542 306.6218 C 290.082 305.4658 290.872 302.8468 291.216 302.1078 C 293.016 298.2418 297.195 295.4158 301.44 295.8248 C 301.961 295.8738 302.508 295.9848 302.893 296.3398 C 303.494 296.8958 303.49 297.8338 303.401 298.6478 C 303.122 301.2258 302.424 306.4738 298.727 307.2068 C 297.331 307.4838 293.493 308.1668 291.542 306.6218 " fill="#3bb3dd"/>
<path transform="matrix(1,0,0,-1,-238.9531,352.6722)" d="M 300.9873 299.2326 C 300.9593 298.9936 300.9243 298.7506 300.8203 298.5326 C 300.6473 298.1686 300.2973 297.9106 299.9193 297.7696 C 298.8223 297.3606 297.5763 297.8656 296.6813 298.6206 C 295.7873 299.3766 295.1213 300.3646 294.2743 301.1716 C 293.9893 301.4416 293.6793 301.6996 293.4983 302.0476 C 292.2003 304.5376 296.7813 306.0286 298.5133 305.2666 C 300.6393 304.3306 301.2223 301.2526 300.9873 299.2326 " fill="#0056a1"/>
<path transform="matrix(1,0,0,-1,-238.9531,352.6722)" d="M 313.6104 283.6164 C 312.9604 284.2504 311.9714 284.3754 311.0644 284.4094 C 310.3164 284.4374 309.4784 284.3744 308.9704 283.8244 C 308.1964 282.9874 308.7464 281.5144 309.7384 280.9554 C 310.7314 280.3944 311.9674 280.3404 313.0814 280.5784 C 314.2964 280.8384 314.5314 282.7184 313.6104 283.6164 " fill="#0056a1"/>
<path transform="matrix(1,0,0,-1,-238.9531,352.6722)" d="M 326.917 312.9807 C 327.782 313.0387 328.646 312.7837 329.455 312.4687 C 329.691 312.3767 329.934 312.2647 330.088 312.0637 C 330.272 311.8227 330.298 311.5007 330.312 311.1977 C 330.348 310.4137 330.336 309.5727 329.9 308.9187 C 329.35 308.0947 328.209 307.7927 327.254 308.0597 C 326.3 308.3257 325.533 309.0707 325.041 309.9317 C 324.834 310.2947 324.664 310.7017 324.7 311.1187 C 324.752 311.7337 325.709 312.8997 326.917 312.9807 " fill="#3bb3dd"/>
<path transform="matrix(1,0,0,-1,-238.9531,352.6722)" d="M 319.0591 303.8103 C 319.9821 302.2263 317.6471 299.6123 317.1521 299.2423 C 316.7771 298.9613 316.3131 299.0673 315.9121 299.1853 C 315.3401 299.3533 314.7421 299.5393 314.3501 300.0193 C 313.9831 300.4683 313.8481 301.1313 313.9021 301.7803 C 313.9561 302.4303 314.1861 303.0683 314.4801 303.6573 C 314.6771 304.0503 314.9081 304.4333 315.2161 304.7223 C 315.6141 305.0953 316.1141 305.2863 316.6031 305.3663 C 317.2761 305.4763 318.7051 304.4193 319.0591 303.8103 " fill="#eb8c2a"/>
<path transform="matrix(1,0,0,-1,-238.9531,352.6722)" d="M 308.9033 340.9304 C 309.4283 340.4024 309.6763 339.6294 309.6283 338.8864 C 309.5803 338.1424 309.2523 337.4314 308.7733 336.8604 C 308.3763 336.3884 307.8723 335.9974 307.5743 335.4574 C 306.9933 334.4024 307.3383 333.1054 307.3243 331.9014 C 307.3223 331.6684 307.2983 331.4164 307.1423 331.2424 C 306.9573 331.0354 306.6453 331.0054 306.3693 331.0324 C 304.9023 331.1724 303.7683 332.5354 303.4923 333.9844 C 303.3773 334.5924 303.3823 335.2174 303.2843 335.8294 C 303.1623 336.5964 302.8793 337.3294 302.7563 338.0974 C 302.5513 339.3774 302.8173 340.7274 303.4913 341.8344 C 303.8803 342.4734 304.4653 343.0664 305.2073 343.1594 C 306.0393 343.2634 306.4333 342.7214 306.9853 342.2364 C 307.5703 341.7224 308.3503 341.4874 308.9033 340.9304 " fill="#eb8c2a"/>
<path transform="matrix(1,0,0,-1,-238.9531,352.6722)" d="M 307.6138 339.4509 C 307.7838 338.5249 306.2958 337.1969 305.2548 337.6909 C 304.6558 337.9749 304.5498 341.0349 306.0698 340.8179 C 306.5798 340.7449 307.4528 340.3299 307.6138 339.4509 " fill="#e24126"/>
<path transform="matrix(1,0,0,-1,-238.9531,352.6722)" d="M 267.4766 301.885 C 266.8156 301.863 266.2126 301.198 266.2236 300.537 C 266.2356 299.818 266.8996 299.099 267.5636 298.822 C 268.5046 298.431 269.5626 298.43 270.5806 298.365 C 270.9536 298.342 271.4096 298.387 271.5746 298.723 C 271.6466 298.872 271.6426 299.046 271.6206 299.211 C 271.4746 300.323 270.4676 300.749 269.4466 301.18 C 268.9826 301.377 267.9796 301.902 267.4766 301.885 " fill="#0056a1"/>
<path transform="matrix(1,0,0,-1,-238.9531,352.6722)" d="M 268.0835 314.6462 C 268.5585 314.7542 269.1205 314.4372 269.5885 314.1322 C 270.7065 313.4042 271.6415 312.1972 271.7025 310.9962 C 271.7635 309.7952 270.7095 308.7782 269.4775 309.1152 C 269.0795 309.2242 268.7025 309.4532 268.3575 309.7152 C 267.2705 310.5442 266.0945 311.7912 266.1555 312.9922 C 266.1895 313.6722 266.6825 314.3282 268.0835 314.6462 " fill="#0056a1"/>
<path transform="matrix(1,0,0,-1,-238.9531,352.6722)" d="M 288.7241 347.4944 C 288.9071 346.6194 289.3641 345.6884 289.9531 345.1674 C 290.7401 344.4724 291.7411 344.0584 292.7591 343.8044 C 293.7331 343.5594 294.7781 343.4324 295.5881 342.8404 C 296.1291 342.4444 296.5221 341.8694 297.0781 341.4944 C 297.6341 341.1204 298.4931 341.0264 298.8991 341.5594 C 299.0991 341.8214 299.1391 342.1664 299.1711 342.4944 C 299.2811 343.5824 299.3881 344.7024 299.0811 345.7524 C 298.9871 346.0774 298.9201 346.5864 298.8971 347.0594 C 296.6791 347.4374 294.4031 347.6444 292.0781 347.6444 C 290.9481 347.6444 289.8311 347.5854 288.7241 347.4944 " fill="#f4db6b"/>
<path transform="matrix(1,0,0,-1,-238.9531,352.6722)" d="M 251.73 307.6438 C 252.678 308.1728 253.645 308.7078 254.708 308.9298 C 255.216 309.0358 257 309.2018 257.174 310.3988 C 257.328 311.4578 255.986 312.8288 255.843 313.0408 C 255.457 313.6138 253.024 314.9928 252.338 315.0608 C 251.848 312.6038 251.584 310.0668 251.562 307.4738 C 251.625 307.5518 251.684 307.6188 251.73 307.6438 " fill="#e24126"/>
<path transform="matrix(1,0,0,-1,-238.9531,352.6722)" d="M 290.7178 273.9485 C 289.7438 273.4725 288.7448 272.5445 288.7448 271.4225 C 288.7448 270.8655 288.9958 270.3795 289.2388 269.9175 C 289.8208 268.8185 290.4018 267.7195 290.9828 266.6205 C 291.3478 266.6105 291.7108 266.5935 292.0788 266.5935 C 294.1918 266.5935 296.2678 266.7565 298.2948 267.0695 C 298.7588 267.6195 299.0588 268.3525 299.1238 269.0735 C 299.2248 270.1975 298.8348 271.2675 298.2488 272.1205 C 296.6308 274.4715 293.3968 275.2575 290.7178 273.9485 " fill="#0056a1"/>
<path transform="matrix(1,0,0,-1,-238.9531,352.6722)" d="M 328.5679 292.3528 C 328.0579 291.8728 327.6409 291.1358 325.5119 291.1148 C 323.5509 291.0958 318.6089 293.5598 317.4869 291.4668 C 316.0379 288.7618 321.8249 286.1578 322.8719 285.5888 C 323.8709 285.0468 324.6389 283.4208 324.7519 283.1798 C 326.9369 286.1548 328.7259 289.4338 330.0419 292.9458 C 329.5959 292.9918 328.7989 292.5698 328.5679 292.3528 " fill="#0056a1"/>
<path transform="matrix(1,0,0,-1,-238.9531,352.6722)" d="M 332.2407 305.4411 C 331.0997 305.2151 330.0177 304.6871 329.1467 303.9151 C 328.9887 303.7761 328.8347 303.6271 328.6467 303.5321 C 328.3667 303.3911 328.0407 303.3861 327.7267 303.3831 C 326.6277 303.3741 325.5277 303.3651 324.4287 303.3571 C 324.1657 303.3541 323.8987 303.3521 323.6477 303.2721 C 323.3657 303.1821 323.1197 302.9991 322.9227 302.7781 C 322.3217 302.1061 322.2147 300.9711 322.8367 300.3181 C 323.2567 299.8761 323.8977 299.7281 324.5047 299.6771 C 325.1127 299.6261 325.7357 299.6481 326.3157 299.4601 C 327.3537 299.1241 328.0577 298.1911 328.8717 297.4641 C 329.0067 297.3441 329.1487 297.2271 329.3137 297.1531 C 329.5257 297.0591 329.7617 297.0431 329.9927 297.0331 C 330.4417 297.0131 330.8897 297.0351 331.3387 297.0551 C 332.0357 299.7721 332.4487 302.6001 332.5637 305.5041 C 332.4507 305.4841 332.3397 305.4611 332.2407 305.4411 " fill="#f4db6b"/>
<path transform="matrix(1,0,0,-1,-238.9531,352.6722)" d="M 330.2153 302.7473 C 329.6733 302.4493 329.0633 302.0223 329.2313 301.5333 C 329.4133 301.0043 330.3483 300.8693 330.7953 300.4393 C 331.1703 300.0783 331.3753 299.3353 331.7623 298.8873 C 332.1023 300.5253 332.3313 302.2023 332.4653 303.9043 C 331.6773 303.5043 330.8053 303.0713 330.2153 302.7473 " fill="#eb8c2a"/>
</g>
</g>
</svg>
